<?xml version="1.0" encoding="UTF-8"?>
<!DOCTYPE svg PUBLIC "-//W3C//DTD SVG 1.1//EN" "http://www.w3.org/Graphics/SVG/1.1/DTD/svg11.dtd">
<!-- Creator: CorelDRAW 2021 (64 Bit) -->
<svg xmlns="http://www.w3.org/2000/svg" xml:space="preserve" width="166px" height="131px" version="1.1" style="shape-rendering:geometricPrecision; text-rendering:geometricPrecision; image-rendering:optimizeQuality; fill-rule:evenodd; clip-rule:evenodd"
viewBox="0 0 8.24 6.47"
 xmlns:xlink="http://www.w3.org/1999/xlink"
 xmlns:xodm="http://www.corel.com/coreldraw/odm/2003">
 <defs>
  <style type="text/css">
   <![CDATA[
    .fil0 {fill:none}
    .fil1 {fill:#333333}
   ]]>
  </style>
 </defs>
 <g id="Camada_x0020_1">
  <metadata id="CorelCorpID_0Corel-Layer"/>
  <rect class="fil0" width="8.24" height="6.47"/>
  <path class="fil1" d="M7.05 5.24c-0.3,-0.05 -0.6,-0.17 -1.21,-0.5 -0.14,0.1 -0.43,0.11 -0.43,0.11 -0.1,0 -0.18,-0.1 -0.17,-0.22 0,-0.08 0.03,-0.15 0.08,-0.19 -0.09,-0.05 -0.19,-0.11 -0.29,-0.17 -0.14,0.12 -0.45,0.13 -0.45,0.13 -0.1,0 -0.18,-0.1 -0.18,-0.22 0,-0.09 0.05,-0.17 0.12,-0.21 -0.06,-0.03 -0.11,-0.06 -0.17,-0.09 -0.33,0.06 -0.97,0.12 -1.62,0.12 -0.12,0 -0.24,0 -0.36,-0.01l-0.05 -0.05 0.05 0.05c-0.8,-0.02 -1.54,-0.14 -1.71,-0.44 -0.02,-0.02 -0.03,-0.05 -0.04,-0.07 0.16,0.06 0.62,0.22 1.39,0.28 0.04,0 0.09,0 0.13,0.01l0 0c0.16,0.01 0.33,0.01 0.51,0.01 0.4,0 0.86,-0.03 1.38,-0.09 -0.03,-0.02 -0.07,-0.04 -0.1,-0.07 -0.48,0.06 -0.91,0.09 -1.28,0.09 -0.21,0 -0.41,-0.01 -0.59,-0.03l-0.01 0 0.01 0c-0.96,-0.06 -1.44,-0.28 -1.46,-0.29 0,0.01 0,0.03 0.01,0.04 -0.01,-0.01 -0.01,-0.03 -0.02,-0.04l0 0 0.01 0c-0.01,-0.02 -0.01,-0.04 -0.01,-0.06 0.07,0.03 0.53,0.23 1.41,0.3l0 0 0.03 0c0.07,0.01 0.14,0.01 0.21,0.01 0.12,0.01 0.26,0.01 0.4,0.01 0.35,0 0.75,-0.02 1.21,-0.07 -0.02,-0.01 -0.04,-0.02 -0.05,-0.04 -0.43,0.05 -0.8,0.07 -1.14,0.07 -0.26,0 -0.5,-0.01 -0.71,-0.03l-0.39 -0.39 0.39 0.39c-0.9,-0.08 -1.35,-0.29 -1.36,-0.29l0 0.01c0,-0.27 0.3,-0.45 0.53,-0.55l0 0c0.15,-0.07 0.27,-0.11 0.27,-0.11 0,0 0.24,0.12 0.68,0.12 0.05,0 0.11,0 0.16,0 0,0 -0.54,-0.13 -0.74,-0.25 0.16,-0.13 0.46,-0.18 0.66,-0.19 0.02,-0.07 0.06,-0.12 0.12,-0.13 -0.02,-0.02 -0.04,-0.04 -0.07,-0.06 -0.12,0.04 -0.27,0.04 -0.27,0.04 -0.08,0 -0.15,-0.09 -0.15,-0.19 0,-0.07 0.03,-0.13 0.07,-0.16 -0.17,-0.16 -0.36,-0.38 -0.34,-0.5 0,-0.03 0.02,-0.12 0.12,-0.12 0,0 0.01,0 0.01,0 0.15,0.01 0.53,0.2 2.1,1.16l0 0c0.91,0.04 1.61,0.08 2.13,0.13 -0.12,-0.12 -0.15,-0.17 -0.17,-0.24 -0.02,-0.06 -0.01,-0.07 0.01,-0.07 0.03,0 0.07,0.04 0.07,0.04l0.5 0.3c0.85,-0.96 1.09,-1.1 1.2,-1.1 0,0 0.01,0 0.01,0 0.03,0 0.06,0.02 0.08,0.04 0.04,0.05 0.03,0.13 -0.01,0.28 -0.12,0.42 -0.33,0.79 -0.43,0.95 0.03,0.02 0.06,0.03 0.08,0.04 -0.05,0.02 -0.09,0.04 -0.14,0.05 -0.03,0.01 -0.06,0.02 -0.09,0.03 -0.11,0.04 -0.21,0.07 -0.32,0.11 0.03,-0.01 0.05,-0.01 0.08,-0.01 0.02,0 0.04,0 0.06,0 0.15,-0.04 0.3,-0.09 0.45,-0.15 0.01,0.02 0.02,0.03 0.02,0.04 -0.12,0.05 -0.25,0.09 -0.37,0.13l0.03 0.01 0.04 0.05c0.09,-0.03 0.18,-0.06 0.26,-0.09 -0.04,0.04 -0.12,0.09 -0.21,0.13l0.57 0.55c0,0 0.13,0.11 0,0.11 0,0 -0.01,0 -0.02,-0.01 -0.14,0 -0.25,-0.07 -0.89,-0.5 -0.33,0.14 -0.76,0.27 -1.18,0.38l1.88 1.35 0 0 0.04 0.03c0.11,0.07 0.22,0.17 0.19,0.26 -0.02,0.06 -0.1,0.08 -0.18,0.08 -0.02,0 -0.04,0 -0.06,-0.01l-0.03 0c-0.11,-0.01 -0.2,-0.02 -0.29,-0.03l0 0zm-6.46 -1.91l0 0 0 -0.01 0 0.01zm6.7 1.66l-1.93 -1.39 -0.17 -0.12 -0.09 -0.06 -0.05 -0.04 -0.05 -0.03 -0.26 -0.19c-0.09,-0.02 -0.17,-0.04 -0.26,-0.04 -0.04,0 -0.07,-0.01 -0.11,-0.01 -0.34,0 -0.62,0.12 -0.75,0.19 0.13,0.08 0.25,0.15 0.37,0.22 0.02,0.01 0.04,0.02 0.06,0.04 0.02,0.01 0.05,0.02 0.07,0.04 0.03,0.02 0.07,0.04 0.1,0.06 0.1,0.06 0.2,0.12 0.3,0.17 0.07,0.05 0.14,0.09 0.2,0.13 0.13,0.07 0.25,0.14 0.37,0.21 0.14,0.09 0.28,0.16 0.4,0.23 0.16,0.09 0.3,0.17 0.43,0.24 0.64,0.35 0.92,0.45 1.23,0.49l0 0c0.07,0.01 0.13,0.02 0.2,0.02l0.03 0c0.02,0.01 0.04,0.01 0.05,0.01 0.03,0 0.05,-0.01 0.06,-0.01 -0.02,-0.03 -0.08,-0.08 -0.13,-0.11l-0.07 -0.05 0 0zm-0.8 -1.93l0 0c-0.44,0.14 -0.84,0.24 -1.23,0.33l0.08 0.06c0.39,-0.09 0.8,-0.2 1.24,-0.33l-0.02 -0.02c-0.03,-0.01 -0.05,-0.02 -0.07,-0.04zm-0.02 -0.08c-0.02,0 -0.04,0.01 -0.06,0.01 -0.44,0.14 -0.86,0.24 -1.25,0.33l0.05 0.03c0.38,-0.09 0.79,-0.19 1.23,-0.32l-0.03 -0.02 0.01 -0.01c0.01,0 0.03,-0.01 0.05,-0.02zm1 -1.44c-0.05,0 -0.26,0.11 -1.06,1.01 -0.01,0.01 -0.02,0.02 -0.03,0.03l0 0.01c0.01,0.01 0.03,0.02 0.05,0.03 0.08,0.03 0.19,0.07 0.33,0.08l0 0c0.03,0 0.06,0 0.09,0 0.04,0 0.09,0 0.14,-0.01 0,-0.01 0.01,-0.02 0.02,-0.03 0.09,-0.14 0.32,-0.52 0.44,-0.96 0.03,-0.11 0.03,-0.15 0.02,-0.16zm-5.84 -0.22l0 0.01c-0.01,0.05 0.12,0.25 0.36,0.46l0.01 0c0.11,0.1 0.22,0.2 0.32,0.28 0.05,0.04 0.09,0.08 0.13,0.11 0.04,0.04 0.07,0.06 0.08,0.08l0.17 0.01 0.76 0.06c-1.17,-0.72 -1.69,-1 -1.83,-1.01l0 0z"/>
 </g>
</svg>
