<svg width="76" height="38" viewBox="0 0 76 38" fill="none" xmlns="http://www.w3.org/2000/svg">
<g clip-path="url(#clip0)">
<path d="M7.80381 22.5C7.56023 23.5051 7.66625 24.5629 8.10449 25.5C8.49121 24.7549 8.99924 24.0791 9.60785 23.5C10.4607 24.4974 11.4775 25.3428 12.6146 26C12.0572 24.8512 11.7511 23.5973 11.7165 22.3215C11.682 21.0457 11.9198 19.7771 12.4141 18.6C13.6168 16 14.6191 14.1 14.6191 14.1L11.7126 13.6C11.7126 13.5 8.20471 18.9 7.80381 22.5Z" fill="#F6CD1D"/>
<path d="M12.8149 26.2L12.5143 26.1C11.3483 25.5288 10.322 24.7096 9.50754 23.7C8.96185 24.2722 8.49043 24.9105 8.1044 25.6L8.00418 25.8L7.90395 25.7C7.45968 24.7292 7.35383 23.6379 7.60328 22.6C8.06403 20.5559 8.77073 18.5749 9.70799 16.7C10.61 14.9 11.512 13.5 11.512 13.5V13.4L14.619 13.9L14.5188 14C13.7001 15.4578 12.964 16.9601 12.3138 18.5C11.8443 19.6656 11.6198 20.915 11.6543 22.1708C11.6888 23.4265 11.9815 24.6618 12.5143 25.8L12.8149 26.2ZM9.60776 23.3C10.3548 24.2316 11.2733 25.0122 12.3138 25.6C11.8932 24.5776 11.6231 23.4997 11.512 22.4C11.3844 21.0281 11.6266 19.6471 12.2136 18.4C13.2158 16.2 14.1179 14.5 14.4185 14L11.7125 13.5C11.3116 14.1 8.30485 19.1 7.90395 22.4C7.75326 23.3031 7.822 24.229 8.1044 25.1C8.50764 24.425 9.01498 23.8175 9.60776 23.3V23.3Z" fill="#FCB040"/>
<path d="M14.6191 14.3C14.6191 14.3 14.6191 20.5 17.225 22.4C17.3057 21.3875 17.4733 20.3838 17.7261 19.4C17.7261 19.4 18.5279 20.1 21.2339 19.9C20.2317 19.2 18.4277 18.2 17.6259 13.9C16.8241 9.59999 15.4209 13.3 15.4209 13.3L14.6191 14.3Z" fill="#F6CD1D"/>
<path d="M17.3253 22.7L17.1249 22.6C16.4686 22.0246 15.9542 21.306 15.6215 20.5C15.2812 19.6232 15.013 18.7203 14.8197 17.8C14.6327 16.676 14.5321 15.5394 14.519 14.4L15.4211 13.3C15.5213 13.1 16.1226 11.7 16.724 11.8C17.3253 11.9 17.5258 12.6 17.8264 14C18.528 17.8 20.1316 19 21.1338 19.7C21.2341 19.8 21.3343 19.8 21.4345 19.9L21.635 20.1H21.3343C20.1507 20.3028 18.9337 20.164 17.8264 19.7C17.5979 20.6214 17.4305 21.5567 17.3253 22.5V22.7ZM14.7195 14.4C14.7203 15.5068 14.8209 16.6113 15.0202 17.7C15.3208 19.2 15.9222 21.3 17.1249 22.3C17.2154 21.3547 17.383 20.4182 17.626 19.5L17.7262 19.3L17.8264 19.4C17.8264 19.4 18.6282 20 20.9334 19.9C19.9312 19.2 18.2273 18 17.5258 14C17.2251 12.3 16.8242 12 16.6238 12C16.2229 12 15.7217 12.8 15.5213 13.4L14.7195 14.4Z" fill="#FCB040"/>
<path d="M23.0381 5L22.8377 4.8L22.6372 4.6L22.4368 4.4L22.2363 4.1L22.0359 3.9L21.8354 3.7L21.635 3.5L21.4345 3.3L21.2341 3.1L21.0336 2.9L20.8332 2.7L20.6327 2.5L20.3321 2.3L20.1316 2.1L19.9312 1.9L19.7307 1.7L19.5303 1.5L19.3298 1.3L19.1294 1L18.9289 0.8L18.7285 0.6L18.528 0.4L18.3276 0.2L18.1271 0H17.7262H17.3253H16.8242H16.4233H16.0224H15.6215H15.2206H14.8197H14.4188H14.0179H13.5168H13.1159H12.715H12.3141H11.9132H11.5123H11.1114H6V5.1V5.5V5.9V6.3V6.7V7.1V7.5V7.9V8.4V8.8V9.2V9.6V10V10.4V10.8V11.2V11.7V12V12.1L6.20045 12.3L6.4009 12.5L6.70157 12.7L6.90202 12.9L7.10247 13.1L7.30292 13.3L7.50336 13.5L7.70381 13.7L7.90426 13.9L8.10471 14.1L8.30516 14.3L8.50561 14.5L8.70605 14.7L8.9065 14.9L9.10695 15.2L9.3074 15.4L9.50785 15.6L9.7083 15.8L10.009 16L10.2094 16.2L10.4099 16.4L10.6103 16.6L10.8108 16.8L11.0112 17H11.4121H11.813H12.2139H12.6148H13.0157H13.5168H13.9177H14.3186H14.7195H15.1204H15.5213H15.9222H16.3231H16.8242H17.2251H17.626H18.0269H23.0381V12V11.6V11.1V10.7V10.3V9.9V9.5V9.1V8.7V8.3V7.8V7.4V7V6.6V6.2V5.8V5.4V5Z" fill="#056734"/>
<path d="M20.2317 5.1L20.1315 5L20.0313 4.9L19.9311 4.8L19.8308 4.7L19.7306 4.6V4.5L19.6304 4.4L19.5302 4.3L19.4299 4.2L19.3297 4.1L19.2295 4L19.1293 3.9L19.029 3.8L18.9288 3.7L18.8286 3.6L18.7284 3.5L18.6281 3.4L18.5279 3.3L18.4277 3.2L18.3275 3.1L18.2272 3L18.127 2.9L18.0268 2.8L17.9266 2.7L17.8264 2.6L17.7261 2.5H17.5257H17.3252H17.1248H16.9243H16.7239H16.6237H16.4232H16.2228H16.0223H15.8219H15.6214H15.421H15.2205H15.0201H14.8196H14.6192H14.4187H14.2183H14.0178H13.8174H13.6169H13.4165H13.216H13.0156H12.8151H12.6147H12.5145H12.314H12.1136H11.9131H8.40527V6V6.2V6.4V6.6V6.8V7V7.2V7.4V7.6V7.8V8V8.1V8.3V8.5V8.7V8.9V9.1V9.3V9.5V9.7V9.9V10.1V10.3V10.5V10.7V10.9V11.1V11.3V11.5V11.7V11.8L8.5055 11.9L8.60572 12L8.70595 12.1L8.80617 12.2L8.90639 12.3L9.00662 12.4L9.10684 12.5L9.20707 12.6L9.30729 12.7L9.40752 12.8L9.50774 12.9L9.60796 13L9.70819 13.1L9.80841 13.2L9.90864 13.3L10.0089 13.4L10.1091 13.5L10.2093 13.6L10.3095 13.7L10.4098 13.8L10.51 13.9L10.6102 14L10.7104 14.1L10.8107 14.2L10.9109 14.3L11.0111 14.4H11.1113H11.3118H11.5122H11.7127H11.9131H12.1136H12.314H12.5145H12.7149H12.9154H13.1158H13.3163H13.5167H13.7172H13.9176H14.1181H14.2183H14.4187H14.6192H14.8196H15.0201H15.2205H15.421H15.6214H15.8219H16.0223H16.2228H16.4232H16.6237H16.8241H20.332V10.9V10.7V10.5V10.3V10.1V9.9V9.7V9.6V9.4V9.2V9V8.8V8.6V8.4V8.2V8V7.8V7.6V7.4V7.2V7V6.8V6.6V6.4V6.2V6V5.8V5.6V5.5V5.3V5.1H20.2317Z" fill="#94C120"/>
<path d="M7.80371 4.80002C10.1755 7.04806 12.1418 9.68656 13.6167 12.6C13.6167 12.6 18.8284 4.60002 25.1425 1.40002C20.6761 2.54873 16.7028 5.10986 13.8172 8.70002C12.2569 6.82006 10.1591 5.45955 7.80371 4.80002V4.80002Z" fill="white"/>
<path d="M39.2745 13.6H38.9739C38.1179 13.6781 37.3098 14.0287 36.6687 14.6C36.1506 15.1335 35.772 15.786 35.5662 16.5C35.3045 17.2086 35.1361 17.9481 35.0651 18.7C34.9481 19.4325 34.9822 20.1811 35.1654 20.9C35.2313 21.4623 35.4773 21.9883 35.8669 22.4C36.1426 22.6721 36.4722 22.8839 36.8346 23.0216C37.1971 23.1594 37.5843 23.2201 37.9716 23.2C38.0749 23.1981 38.1767 23.2252 38.2653 23.2783C38.3539 23.3313 38.4258 23.4081 38.4728 23.5C38.6704 23.8884 38.9053 24.2568 39.1743 24.6C39.8759 24.3 40.6777 23.9 41.3793 23.6C41.0786 23.2 40.6777 22.8 40.377 22.4C40.7655 22.0343 41.0728 21.5915 41.279 21.1C41.8248 19.9393 42.1315 18.6811 42.1811 17.4C42.2139 16.7271 42.1464 16.0531 41.9806 15.4C41.8777 15.0205 41.6885 14.6697 41.4278 14.3749C41.1671 14.0801 40.8418 13.8491 40.4772 13.7C40.0763 13.7 39.6754 13.6 39.2745 13.6ZM38.9739 15.9C39.2746 15.9 39.475 16 39.475 16.2C39.5498 16.4255 39.5837 16.6626 39.5752 16.9C39.5223 17.9485 39.3543 18.988 39.0741 20C38.9944 20.2096 38.8936 20.4106 38.7734 20.6V20.6C38.7208 20.6657 38.6557 20.7204 38.5819 20.761C38.5081 20.8015 38.427 20.8272 38.3432 20.8365C38.2594 20.8458 38.1746 20.8385 38.0937 20.8151C38.0127 20.7917 37.9372 20.7525 37.8714 20.7V20.7L37.7712 20.6C37.7712 20.5735 37.7606 20.548 37.7418 20.5293C37.723 20.5105 37.6975 20.5 37.671 20.5V20.5V20.4C37.5884 20.1417 37.5545 19.8705 37.5707 19.6V19.4C37.5984 18.5203 37.733 17.6473 37.9716 16.8C38.0719 16.6 38.1721 16.3 38.2723 16.1C38.4953 16 38.7316 15.9327 38.9739 15.9V15.9Z" fill="#056734"/>
<path d="M43.2833 13.8H45.8891C45.7889 14.5 45.6887 15.2 45.5885 15.8C45.4882 16.6 45.388 17.3 45.2878 18.1C45.1663 18.7264 45.0992 19.3621 45.0873 20V20.3C45.0873 20.8 45.388 20.9 45.7889 20.8C45.8929 20.793 45.9908 20.7486 46.0646 20.675C46.1383 20.6015 46.1828 20.5038 46.1898 20.4C46.2723 20.1418 46.3063 19.8705 46.29 19.6L46.5907 17.5C46.6909 16.8 46.7911 16 46.8914 15.3C46.9916 14.8 46.9916 14.4 47.0918 13.9V13.8H49.6976C49.7134 14.0051 49.679 14.211 49.5974 14.4C49.4972 15.3 49.397 16.1 49.2968 17C49.1965 17.9 49.0963 18.7 48.9961 19.5C48.9215 20.0789 48.7872 20.6486 48.5952 21.2C48.3981 21.7749 48.037 22.2799 47.5563 22.653C47.0756 23.026 46.4961 23.2509 45.8891 23.3C45.2864 23.3666 44.6767 23.3328 44.0851 23.2C43.667 23.0964 43.2901 22.8691 43.0039 22.5478C42.7176 22.2266 42.5356 21.8264 42.4815 21.4C42.4148 20.7653 42.4486 20.1242 42.5817 19.5C42.6819 18.7 42.7822 18 42.8824 17.2C42.9826 16.4 43.0828 15.7 43.1831 14.9C43.1666 14.5305 43.2003 14.1605 43.2833 13.8V13.8Z" fill="#056734"/>
<path d="M31.0561 13.8C30.9558 13.8 30.8556 13.8 30.8556 14C29.8534 16.9 28.8511 19.7 27.8489 22.6C27.7487 22.8 27.7487 23 27.6484 23.2H29.9536C30.154 23.2 30.154 23.2 30.2543 23L30.5549 21.8H32.0583V23.2H34.6641C34.3635 20.1 34.163 17 33.8623 13.9H33.6619C32.7959 13.8167 31.9259 13.7834 31.0561 13.8V13.8ZM31.9581 16.5C31.9581 17.6 32.0583 18.7 32.0583 19.8H31.0561L31.9581 16.5Z" fill="#056734"/>
<path d="M49.397 23.1L50.5997 13.8H53.2055C53.2213 14.0051 53.1869 14.211 53.1053 14.4L52.8046 16.5L52.5039 18.6C52.4037 19.4 52.3035 20.1 52.2032 20.9C52.103 21.7 52.0028 22.4 51.9026 23.1L51.8024 23.2C51.0036 23.1146 50.2001 23.0812 49.397 23.1V23.1Z" fill="#056734"/>
<path d="M60.0207 11.7H57.6153C57.6153 11.4 57.7155 11 57.7155 10.7C57.837 10.0736 57.9041 9.43792 57.9159 8.80001C57.9159 8.50001 58.0162 8.20001 58.0162 7.80001V7.60001C58.0162 7.50001 58.0162 7.30001 57.8157 7.30001C57.6153 7.30001 57.515 7.20001 57.3146 7.40001C57.1141 7.60001 57.1141 7.80001 57.0139 8.00001C56.9137 8.90001 56.8135 9.80001 56.613 10.8C56.613 11.1 56.5128 11.3 56.5128 11.6V11.8H54.1074C54.1074 11.6 54.2076 11.4 54.2076 11.1C54.3079 10.3 54.4081 9.40001 54.5083 8.60001C54.5928 7.69342 54.7266 6.79209 54.9092 5.90001C54.8831 5.72677 54.9185 5.54988 55.0094 5.40001L55.1097 5.30001H57.3146C57.3146 5.60001 57.2144 5.90001 57.2144 6.20001L57.3146 6.10001C57.5386 5.81099 57.8278 5.57883 58.1587 5.42243C58.4896 5.26604 58.8528 5.18983 59.2189 5.20001C59.5227 5.1706 59.8263 5.25756 60.0683 5.44325C60.3102 5.62894 60.4723 5.89947 60.5218 6.20001V6.30001L61.1231 5.70001C61.397 5.50844 61.7069 5.37423 62.0342 5.30548C62.3615 5.23673 62.6993 5.23487 63.0274 5.30001C63.2802 5.37548 63.4987 5.53669 63.6451 5.75578C63.7915 5.97488 63.8566 6.23811 63.8292 6.50001C63.8509 6.83657 63.817 7.1744 63.7289 7.50001C63.6287 8.30001 63.5285 9.00001 63.4283 9.80001C63.328 10.6 63.2278 11.1 63.1276 11.8L63.0274 11.9H60.8224C60.9227 11.4 60.9227 11 61.0229 10.5C61.1231 9.70001 61.2233 9.00001 61.3236 8.20001V7.90001C61.3236 7.70001 61.3236 7.60001 61.1231 7.60001C60.9227 7.60001 60.8224 7.60001 60.622 7.70001C60.4963 7.83668 60.425 8.01451 60.4215 8.20001C60.2211 9.40001 60.1209 10.6 59.9204 11.7C60.0206 11.5 60.0207 11.6 60.0207 11.7Z" fill="#94C120"/>
<path d="M30.4547 2.39999H28.8511L27.6484 11.7H30.2543C30.4547 10.5 30.5549 9.39999 30.7554 8.19999C30.9558 9.39999 31.2565 10.5 31.457 11.7H34.2632C33.8623 10.3 33.3612 8.99999 32.9603 7.59999C33.0605 7.59999 33.0605 7.59999 33.0605 7.49999C33.6002 7.27952 34.0562 6.89452 34.3635 6.39999C34.731 5.87674 34.8752 5.22929 34.7644 4.59999C34.7693 4.26382 34.6893 3.93182 34.5316 3.63469C34.374 3.33755 34.1438 3.08487 33.8623 2.89999C33.2958 2.53821 32.6297 2.3633 31.9581 2.39999H30.4547ZM31.3567 4.29999C31.4496 4.29722 31.5421 4.31343 31.6285 4.34763C31.7148 4.38183 31.7933 4.43329 31.859 4.49885C31.9247 4.56441 31.9763 4.64269 32.0106 4.72887C32.0448 4.81505 32.0611 4.90731 32.0583 4.99999C32.0997 5.34611 32.0295 5.69638 31.8579 5.99999C31.8579 6.02651 31.8473 6.05195 31.8285 6.0707C31.8097 6.08945 31.7842 6.09999 31.7576 6.09999V6.09999C31.6439 6.2206 31.502 6.31115 31.3445 6.36351C31.1871 6.41587 31.0191 6.42841 30.8556 6.39999C30.9558 5.69999 31.0561 4.89999 31.1563 4.19999H31.2565C31.2565 4.21312 31.2591 4.22613 31.2641 4.23826C31.2692 4.25039 31.2766 4.26141 31.2859 4.2707C31.2952 4.27999 31.3062 4.28735 31.3184 4.29238C31.3305 4.2974 31.3436 4.29999 31.3567 4.29999V4.29999Z" fill="#94C120"/>
<path d="M50.5999 4.99998C50.1214 5.01469 49.6621 5.19097 49.297 5.49998C48.8826 5.9225 48.5737 6.43633 48.395 6.99998C48.1166 7.7344 47.9806 8.5149 47.9941 9.29998C47.9619 9.80825 48.03 10.3179 48.1946 10.8C48.2676 11.0794 48.42 11.3318 48.6333 11.5269C48.8467 11.722 49.1119 11.8516 49.3973 11.9C49.6462 11.9351 49.8997 11.9177 50.1414 11.8488C50.3831 11.7798 50.6077 11.661 50.8004 11.5L51.2013 11.1C51.2013 11.3 51.1011 11.5 51.1011 11.8H53.7069C54.0076 9.59998 54.3082 7.39998 54.6089 5.29998H52.2035C52.2035 5.49998 52.1033 5.69998 52.1033 5.99998C52.0031 5.89998 52.0031 5.89998 52.0031 5.79998C51.8285 5.60459 51.6258 5.43609 51.4017 5.29998C51.3029 5.18831 51.1781 5.10256 51.0383 5.05025C50.8985 4.99794 50.748 4.98068 50.5999 4.99998ZM51.3015 6.99998H51.502C51.6022 6.99998 51.7024 7.09998 51.7024 7.29998C51.7024 7.49998 51.8026 7.59998 51.8026 7.69998V7.79998C51.8026 8.19998 51.7024 8.59998 51.7024 8.89998C51.7024 8.99998 51.6022 9.09998 51.6022 9.19998C51.6022 9.29998 51.502 9.49998 51.4017 9.59998C51.3674 9.64747 51.3222 9.68615 51.2699 9.71283C51.2176 9.7395 51.1598 9.75341 51.1011 9.75341C51.0424 9.75341 50.9845 9.7395 50.9322 9.71283C50.8799 9.68615 50.8348 9.64747 50.8004 9.59998C50.746 9.54604 50.7108 9.47578 50.7002 9.39998C50.7002 9.19998 50.5999 9.09998 50.5999 8.89998C50.6174 8.42759 50.6846 7.95835 50.8004 7.49998C50.9006 7.39998 50.9006 7.19998 51.0008 7.09998C51.1011 6.99998 51.2013 6.99998 51.3015 6.99998Z" fill="#94C120"/>
<path d="M67.5376 4.99998C67.0274 4.97175 66.5187 5.07682 66.0617 5.30481C65.6047 5.5328 65.2152 5.87582 64.9317 6.29998C64.1846 7.41663 63.8975 8.77757 64.1299 10.1C64.2348 10.6143 64.5189 11.0748 64.9317 11.4C65.3923 11.6697 65.9045 11.84 66.4351 11.9C67.0974 11.9318 67.7531 11.756 68.3102 11.3974C68.8674 11.0387 69.2981 10.5151 69.5421 9.89998C69.6423 9.69998 69.6423 9.59998 69.7425 9.39998H67.8382C67.8117 9.39998 67.7862 9.41051 67.7674 9.42927C67.7486 9.44802 67.738 9.47346 67.738 9.49998C67.6378 9.59998 67.6378 9.79998 67.5376 9.89998C67.4567 10.0029 67.3453 10.0776 67.2193 10.1135C67.0933 10.1495 66.9591 10.1447 66.836 10.1C66.6356 9.99998 66.4351 9.89998 66.4351 9.59998V8.69998L66.5353 8.59998H69.8427V8.49998C69.9786 7.87618 70.0124 7.23456 69.943 6.59998C69.9016 6.27723 69.7788 5.97026 69.5859 5.70788C69.3931 5.4455 69.1366 5.23632 68.8405 5.09998C68.4115 5.01703 67.9743 4.98348 67.5376 4.99998V4.99998ZM67.4374 6.49998C67.548 6.51874 67.6521 6.5653 67.7398 6.63528C67.8275 6.70526 67.8958 6.79635 67.9385 6.89998V7.49998L67.8382 7.59998H66.4351C66.4351 7.49998 66.5353 7.49998 66.5353 7.39998L66.836 6.79998C66.9502 6.67646 67.0861 6.57479 67.2369 6.49998H67.4374Z" fill="#94C120"/>
<path d="M37.6708 5.00001C37.2143 4.97701 36.7599 5.07612 36.3546 5.28709C35.9494 5.49807 35.6079 5.81324 35.3657 6.20001C34.9458 6.74762 34.6556 7.38292 34.5168 8.05831C34.3779 8.73371 34.394 9.4317 34.5639 10.1C34.6012 10.5059 34.767 10.8894 35.0372 11.195C35.3075 11.5007 35.6683 11.7125 36.0672 11.8C36.5638 11.883 37.0674 11.9165 37.5706 11.9C38.1723 11.8142 38.7338 11.5485 39.1811 11.138C39.6284 10.7274 39.9405 10.1911 40.0762 9.60001V9.50001H38.172L38.0717 9.60001C37.9966 9.80601 37.8558 9.98169 37.6708 10.1C37.2699 10.3 36.869 10.2 36.7688 9.80001C36.7187 9.46855 36.7187 9.13146 36.7688 8.80001H40.2767C40.4257 8.1079 40.4257 7.39212 40.2767 6.70001C40.2003 6.33081 40.0172 5.99201 39.7501 5.72545C39.4829 5.45888 39.1433 5.27622 38.7733 5.20001C38.4323 5.03013 38.0499 4.96075 37.6708 5.00001V5.00001ZM37.6708 6.50001H37.8713C37.9853 6.52513 38.0872 6.58844 38.1602 6.67941C38.2331 6.77038 38.2726 6.88352 38.2722 7.00001V7.50001L38.172 7.60001H36.869V7.40001L37.1697 6.80001L37.3702 6.60001C37.5706 6.50001 37.5706 6.50001 37.6708 6.50001V6.50001Z" fill="#94C120"/>
<path d="M44.5864 11.7C44.9873 8.3 45.4884 4.9 45.8893 1.5H48.2947C48.3105 1.70515 48.2761 1.91105 48.1945 2.1C48.0943 2.9 47.994 3.8 47.8938 4.6C47.7936 5.4 47.6934 6.3 47.5932 7.1C47.5087 8.00658 47.3748 8.90791 47.1923 9.8C47.0818 10.3607 47.0148 10.929 46.9918 11.5C46.9918 11.5265 46.9812 11.552 46.9625 11.5707C46.9437 11.5895 46.9182 11.6 46.8916 11.6H44.7869C44.6867 11.7 44.6866 11.7 44.5864 11.7Z" fill="#94C120"/>
<path d="M44.2857 9.59998C44.2857 9.89998 44.1854 10.2 44.1854 10.5C44.1854 10.8 44.0852 11.2 44.0852 11.5C44.0852 11.5265 44.0747 11.5519 44.0559 11.5707C44.0371 11.5894 44.0116 11.6 43.985 11.6C43.5762 11.816 43.1143 11.9118 42.6531 11.8764C42.1918 11.841 41.7501 11.6758 41.3792 11.4C41.1555 11.2349 40.9686 11.0252 40.8306 10.7842C40.6926 10.5431 40.6063 10.2761 40.5774 9.99998C40.3494 8.72254 40.599 7.40605 41.2789 6.29998C41.4849 5.96016 41.7614 5.6683 42.0899 5.44406C42.4183 5.21982 42.7912 5.06839 43.1832 4.99998C43.7572 4.8671 44.3596 4.93782 44.887 5.19998C44.7868 5.89998 44.6866 6.49998 44.5863 7.19998C44.4861 7.19998 44.3859 7.09998 44.2857 7.09998C44.1266 7.07023 43.9621 7.09322 43.8174 7.16544C43.6726 7.23766 43.5555 7.35515 43.4839 7.49998C43.1837 8.01274 43.0771 8.61567 43.1832 9.19998C43.1964 9.28869 43.2288 9.37348 43.278 9.44851C43.3273 9.52353 43.3923 9.587 43.4685 9.63453C43.5447 9.68207 43.6304 9.71253 43.7196 9.72383C43.8087 9.73513 43.8993 9.72699 43.985 9.69998C44.0246 9.66218 44.0721 9.63361 44.1241 9.61632C44.1761 9.59903 44.2313 9.59345 44.2857 9.59998V9.59998Z" fill="#94C120"/>
</g>
<path d="M6.32522 28.1H9.67822L9.52422 28.996H7.29822L7.12322 29.983H9.11122L8.95022 30.879H6.96222L6.75222 32.104H8.97822L8.81722 33H5.46422L6.32522 28.1ZM10.6173 33.07C10.2999 33.07 10.0223 33.007 9.78426 32.881C9.54626 32.7503 9.39692 32.5823 9.33626 32.377L10.0293 31.957C10.0899 32.0737 10.1763 32.167 10.2883 32.237C10.4049 32.3023 10.5286 32.335 10.6593 32.335C10.8366 32.335 10.9743 32.3047 11.0723 32.244C11.1749 32.1833 11.2263 32.0993 11.2263 31.992C11.2263 31.9127 11.1866 31.8403 11.1073 31.775C11.0326 31.705 10.9113 31.635 10.7433 31.565C10.4026 31.4203 10.1506 31.264 9.98726 31.096C9.82859 30.928 9.74926 30.739 9.74926 30.529C9.74926 30.1883 9.87759 29.92 10.1343 29.724C10.3956 29.528 10.7503 29.43 11.1983 29.43C11.4876 29.43 11.7396 29.4813 11.9543 29.584C12.1736 29.6867 12.3346 29.8313 12.4373 30.018L11.7933 30.445C11.6626 30.2583 11.4619 30.165 11.1913 30.165C11.0513 30.165 10.9416 30.1907 10.8623 30.242C10.7876 30.2933 10.7503 30.3657 10.7503 30.459C10.7503 30.5197 10.7853 30.5733 10.8553 30.62C10.9299 30.6667 11.0886 30.7413 11.3313 30.844C11.6439 30.9747 11.8726 31.117 12.0173 31.271C12.1666 31.425 12.2413 31.5977 12.2413 31.789C12.2413 32.041 12.1736 32.265 12.0383 32.461C11.9029 32.6523 11.7116 32.8017 11.4643 32.909C11.2169 33.0163 10.9346 33.07 10.6173 33.07ZM14.1398 33.07C13.8085 33.07 13.5518 32.9953 13.3698 32.846C13.1878 32.692 13.0968 32.4773 13.0968 32.202C13.0968 32.1227 13.1038 32.0387 13.1178 31.95L13.4188 30.235H12.7818L12.9148 29.5H13.5518L13.7058 28.611L14.7208 28.331H14.7488L14.5458 29.5H15.5678L15.4348 30.235H14.4128L14.1398 31.796C14.1305 31.8707 14.1258 31.922 14.1258 31.95C14.1258 32.0807 14.1655 32.1787 14.2448 32.244C14.3241 32.3047 14.4478 32.335 14.6158 32.335C14.8025 32.335 14.9798 32.3047 15.1478 32.244L15.0708 32.916C14.8235 33.0187 14.5131 33.07 14.1398 33.07ZM16.9159 33.07C16.5333 33.07 16.2299 32.9487 16.0059 32.706C15.7866 32.4587 15.6769 32.1227 15.6769 31.698C15.6769 31.2593 15.7516 30.8697 15.9009 30.529C16.0549 30.1837 16.2673 29.9153 16.5379 29.724C16.8086 29.528 17.1189 29.43 17.4689 29.43C17.7116 29.43 17.9216 29.472 18.0989 29.556C18.2763 29.64 18.4023 29.7613 18.4769 29.92H18.4909L18.6239 29.5H19.4569L19.0089 32.055C18.9156 32.573 18.8666 32.888 18.8619 33H17.9239C17.9286 32.902 17.9519 32.7573 17.9939 32.566H17.9799C17.8399 32.7247 17.6743 32.8483 17.4829 32.937C17.2963 33.0257 17.1073 33.07 16.9159 33.07ZM17.2099 32.314C17.4386 32.314 17.6323 32.251 17.7909 32.125C17.9543 31.9943 18.0546 31.8217 18.0919 31.607L18.2249 30.858C18.2343 30.802 18.2389 30.7647 18.2389 30.746C18.2389 30.5827 18.1759 30.445 18.0499 30.333C17.9286 30.221 17.7746 30.165 17.5879 30.165C17.4106 30.165 17.2519 30.228 17.1119 30.354C16.9766 30.48 16.8693 30.655 16.7899 30.879C16.7106 31.0983 16.6709 31.348 16.6709 31.628C16.6709 31.852 16.7153 32.0223 16.8039 32.139C16.8973 32.2557 17.0326 32.314 17.2099 32.314ZM19.9363 30.445L19.9923 30.13C20.0436 29.864 20.0716 29.654 20.0763 29.5H20.9443C20.9396 29.6353 20.9163 29.8383 20.8743 30.109H20.8883C20.9909 29.8943 21.1449 29.7287 21.3503 29.612C21.5556 29.4907 21.7889 29.43 22.0503 29.43C22.3023 29.43 22.5076 29.4837 22.6663 29.591C22.8296 29.6937 22.9229 29.8337 22.9463 30.011C23.0723 29.8337 23.2379 29.6937 23.4433 29.591C23.6533 29.4837 23.8726 29.43 24.1013 29.43C24.4373 29.43 24.7009 29.5257 24.8923 29.717C25.0836 29.9083 25.1793 30.1697 25.1793 30.501C25.1793 30.5943 25.1676 30.7063 25.1443 30.837L24.7663 33H23.7793L24.1363 30.956C24.1503 30.886 24.1573 30.8183 24.1573 30.753C24.1573 30.5897 24.1153 30.4637 24.0313 30.375C23.9519 30.2817 23.8353 30.235 23.6813 30.235C23.4946 30.235 23.3383 30.3003 23.2123 30.431C23.0909 30.557 23.0116 30.7343 22.9743 30.963L22.6173 33H21.6373L21.9943 30.984C22.0083 30.9047 22.0153 30.8323 22.0153 30.767C22.0153 30.599 21.9733 30.4683 21.8893 30.375C21.8099 30.2817 21.6956 30.235 21.5463 30.235C21.3596 30.235 21.2033 30.3003 21.0773 30.431C20.9559 30.557 20.8743 30.7413 20.8323 30.984L20.4753 33H19.4883L19.9363 30.445ZM27.1929 33.07C26.6982 33.07 26.3062 32.944 26.0169 32.692C25.7322 32.4353 25.5899 32.0853 25.5899 31.642C25.5899 31.2033 25.6785 30.8183 25.8559 30.487C26.0379 30.151 26.2922 29.892 26.6189 29.71C26.9455 29.5233 27.3235 29.43 27.7529 29.43C28.2475 29.43 28.6372 29.5583 28.9219 29.815C29.2065 30.067 29.3489 30.4147 29.3489 30.858C29.3489 31.2967 29.2579 31.684 29.0759 32.02C28.8985 32.3513 28.6465 32.6103 28.3199 32.797C27.9979 32.979 27.6222 33.07 27.1929 33.07ZM27.2979 32.335C27.4985 32.335 27.6782 32.2767 27.8369 32.16C27.9955 32.0387 28.1192 31.873 28.2079 31.663C28.3012 31.453 28.3479 31.2173 28.3479 30.956C28.3479 30.7087 28.2849 30.515 28.1589 30.375C28.0329 30.235 27.8602 30.165 27.6409 30.165C27.4402 30.165 27.2605 30.2257 27.1019 30.347C26.9432 30.4637 26.8172 30.627 26.7239 30.837C26.6352 31.047 26.5909 31.2827 26.5909 31.544C26.5909 31.7867 26.6539 31.9803 26.7799 32.125C26.9059 32.265 27.0785 32.335 27.2979 32.335ZM30.7764 33.07C30.4591 33.07 30.1814 33.007 29.9434 32.881C29.7054 32.7503 29.5561 32.5823 29.4954 32.377L30.1884 31.957C30.2491 32.0737 30.3354 32.167 30.4474 32.237C30.5641 32.3023 30.6878 32.335 30.8184 32.335C30.9958 32.335 31.1334 32.3047 31.2314 32.244C31.3341 32.1833 31.3854 32.0993 31.3854 31.992C31.3854 31.9127 31.3458 31.8403 31.2664 31.775C31.1918 31.705 31.0704 31.635 30.9024 31.565C30.5618 31.4203 30.3098 31.264 30.1464 31.096C29.9878 30.928 29.9084 30.739 29.9084 30.529C29.9084 30.1883 30.0368 29.92 30.2934 29.724C30.5548 29.528 30.9094 29.43 31.3574 29.43C31.6468 29.43 31.8988 29.4813 32.1134 29.584C32.3328 29.6867 32.4938 29.8313 32.5964 30.018L31.9524 30.445C31.8218 30.2583 31.6211 30.165 31.3504 30.165C31.2104 30.165 31.1008 30.1907 31.0214 30.242C30.9468 30.2933 30.9094 30.3657 30.9094 30.459C30.9094 30.5197 30.9444 30.5733 31.0144 30.62C31.0891 30.6667 31.2478 30.7413 31.4904 30.844C31.8031 30.9747 32.0318 31.117 32.1764 31.271C32.3258 31.425 32.4004 31.5977 32.4004 31.789C32.4004 32.041 32.3328 32.265 32.1974 32.461C32.0621 32.6523 31.8708 32.8017 31.6234 32.909C31.3761 33.0163 31.0938 33.07 30.7764 33.07ZM35.2823 28.1H36.9903C37.5689 28.1 38.0123 28.247 38.3203 28.541C38.6283 28.8303 38.7823 29.2503 38.7823 29.801C38.7823 30.8417 38.5606 31.635 38.1173 32.181C37.6786 32.727 37.0346 33 36.1853 33H34.4213L35.2823 28.1ZM36.3113 32.104C36.5819 32.104 36.8176 32.013 37.0183 31.831C37.2236 31.649 37.3799 31.3947 37.4873 31.068C37.5993 30.7367 37.6553 30.3517 37.6553 29.913C37.6553 29.6003 37.5969 29.3693 37.4803 29.22C37.3636 29.0707 37.1769 28.996 36.9203 28.996H36.2553L35.7093 32.104H36.3113ZM40.1783 29.164C40.0196 29.164 39.889 29.122 39.7863 29.038C39.6883 28.9493 39.6393 28.8397 39.6393 28.709C39.6393 28.5083 39.707 28.345 39.8423 28.219C39.9823 28.093 40.1596 28.03 40.3743 28.03C40.533 28.03 40.6613 28.072 40.7593 28.156C40.8573 28.24 40.9063 28.3497 40.9063 28.485C40.9063 28.6857 40.8386 28.849 40.7033 28.975C40.568 29.101 40.393 29.164 40.1783 29.164ZM39.6183 29.5H40.6123L39.9963 33H39.0023L39.6183 29.5ZM42.0489 33.07C41.7316 33.07 41.4539 33.007 41.2159 32.881C40.9779 32.7503 40.8286 32.5823 40.7679 32.377L41.4609 31.957C41.5216 32.0737 41.6079 32.167 41.7199 32.237C41.8366 32.3023 41.9602 32.335 42.0909 32.335C42.2682 32.335 42.4059 32.3047 42.5039 32.244C42.6066 32.1833 42.6579 32.0993 42.6579 31.992C42.6579 31.9127 42.6182 31.8403 42.5389 31.775C42.4642 31.705 42.3429 31.635 42.1749 31.565C41.8342 31.4203 41.5822 31.264 41.4189 31.096C41.2602 30.928 41.1809 30.739 41.1809 30.529C41.1809 30.1883 41.3092 29.92 41.5659 29.724C41.8272 29.528 42.1819 29.43 42.6299 29.43C42.9192 29.43 43.1712 29.4813 43.3859 29.584C43.6052 29.6867 43.7662 29.8313 43.8689 30.018L43.2249 30.445C43.0942 30.2583 42.8936 30.165 42.6229 30.165C42.4829 30.165 42.3732 30.1907 42.2939 30.242C42.2192 30.2933 42.1819 30.3657 42.1819 30.459C42.1819 30.5197 42.2169 30.5733 42.2869 30.62C42.3616 30.6667 42.5202 30.7413 42.7629 30.844C43.0756 30.9747 43.3042 31.117 43.4489 31.271C43.5982 31.425 43.6729 31.5977 43.6729 31.789C43.6729 32.041 43.6052 32.265 43.4699 32.461C43.3346 32.6523 43.1432 32.8017 42.8959 32.909C42.6486 33.0163 42.3662 33.07 42.0489 33.07ZM44.4304 30.445C44.5004 30.0297 44.5448 29.7147 44.5634 29.5H45.5084C45.4991 29.6167 45.4804 29.7613 45.4524 29.934H45.4664C45.6904 29.598 46.0498 29.43 46.5444 29.43C46.9178 29.43 47.2164 29.5537 47.4404 29.801C47.6644 30.0437 47.7764 30.3703 47.7764 30.781C47.7764 31.2243 47.7018 31.621 47.5524 31.971C47.4078 32.3163 47.2024 32.587 46.9364 32.783C46.6751 32.9743 46.3718 33.07 46.0264 33.07C45.8118 33.07 45.6181 33.0373 45.4454 32.972C45.2728 32.902 45.1421 32.804 45.0534 32.678H45.0324L44.6754 34.694H43.6814L44.4304 30.445ZM45.8794 32.335C46.0521 32.335 46.2061 32.2743 46.3414 32.153C46.4768 32.027 46.5818 31.8543 46.6564 31.635C46.7358 31.411 46.7754 31.1567 46.7754 30.872C46.7754 30.6527 46.7288 30.4847 46.6354 30.368C46.5421 30.2467 46.4091 30.186 46.2364 30.186C46.0078 30.186 45.8118 30.2513 45.6484 30.382C45.4851 30.5127 45.3848 30.683 45.3474 30.893L45.2144 31.642C45.2098 31.6653 45.2074 31.7003 45.2074 31.747C45.2074 31.9103 45.2728 32.0503 45.4034 32.167C45.5341 32.279 45.6928 32.335 45.8794 32.335ZM49.7105 33.07C49.2158 33.07 48.8238 32.944 48.5345 32.692C48.2498 32.4353 48.1075 32.0853 48.1075 31.642C48.1075 31.2033 48.1961 30.8183 48.3735 30.487C48.5555 30.151 48.8098 29.892 49.1365 29.71C49.4631 29.5233 49.8411 29.43 50.2705 29.43C50.7651 29.43 51.1548 29.5583 51.4395 29.815C51.7241 30.067 51.8665 30.4147 51.8665 30.858C51.8665 31.2967 51.7755 31.684 51.5935 32.02C51.4161 32.3513 51.1641 32.6103 50.8375 32.797C50.5155 32.979 50.1398 33.07 49.7105 33.07ZM49.8155 32.335C50.0161 32.335 50.1958 32.2767 50.3545 32.16C50.5131 32.0387 50.6368 31.873 50.7255 31.663C50.8188 31.453 50.8655 31.2173 50.8655 30.956C50.8655 30.7087 50.8025 30.515 50.6765 30.375C50.5505 30.235 50.3778 30.165 50.1585 30.165C49.9578 30.165 49.7781 30.2257 49.6195 30.347C49.4608 30.4637 49.3348 30.627 49.2415 30.837C49.1528 31.047 49.1085 31.2827 49.1085 31.544C49.1085 31.7867 49.1715 31.9803 49.2975 32.125C49.4235 32.265 49.5961 32.335 49.8155 32.335ZM52.489 30.438C52.5637 29.99 52.608 29.6773 52.622 29.5H53.553C53.539 29.7473 53.518 29.9503 53.49 30.109H53.504C53.63 29.8897 53.798 29.7217 54.008 29.605C54.218 29.4883 54.4583 29.43 54.729 29.43C55.065 29.43 55.3193 29.5257 55.492 29.717C55.6647 29.9037 55.751 30.1767 55.751 30.536C55.751 30.704 55.7347 30.872 55.702 31.04L55.359 33H54.365L54.715 31.033C54.7337 30.893 54.743 30.7997 54.743 30.753C54.743 30.4077 54.5797 30.235 54.253 30.235C54.0243 30.235 53.8307 30.312 53.672 30.466C53.5133 30.62 53.4107 30.8277 53.364 31.089L53.028 33H52.034L52.489 30.438ZM56.8455 29.5H57.8255L57.2095 33H56.2295L56.8455 29.5ZM57.8185 27.939H58.7705L57.7905 29.115H56.9995L57.8185 27.939ZM62.0541 29.5L60.0591 33H59.2051L58.4421 29.5H59.4361L59.8141 31.775L61.0041 29.5H62.0541ZM63.954 29.43C64.4067 29.43 64.759 29.556 65.011 29.808C65.2677 30.06 65.396 30.4007 65.396 30.83C65.396 30.984 65.3797 31.1403 65.347 31.299L65.284 31.614H62.876C62.904 32.0293 63.135 32.237 63.569 32.237C63.7697 32.237 63.9494 32.2043 64.108 32.139C64.2714 32.0737 64.4417 31.9617 64.619 31.803L65.067 32.307C64.8897 32.5403 64.6494 32.727 64.346 32.867C64.0474 33.0023 63.7324 33.07 63.401 33.07C62.9297 33.07 62.5564 32.944 62.281 32.692C62.0104 32.44 61.875 32.0947 61.875 31.656C61.875 31.2267 61.9614 30.844 62.134 30.508C62.3114 30.1673 62.5587 29.9037 62.876 29.717C63.1934 29.5257 63.5527 29.43 63.954 29.43ZM64.465 30.907C64.465 30.4637 64.2574 30.242 63.842 30.242C63.6414 30.242 63.4617 30.305 63.303 30.431C63.149 30.5523 63.0347 30.725 62.96 30.949H64.465V30.907ZM66.9137 29.164C66.755 29.164 66.6243 29.122 66.5217 29.038C66.4237 28.9493 66.3747 28.8397 66.3747 28.709C66.3747 28.5083 66.4423 28.345 66.5777 28.219C66.7177 28.093 66.895 28.03 67.1097 28.03C67.2683 28.03 67.3967 28.072 67.4947 28.156C67.5927 28.24 67.6417 28.3497 67.6417 28.485C67.6417 28.6857 67.574 28.849 67.4387 28.975C67.3033 29.101 67.1283 29.164 66.9137 29.164ZM66.3537 29.5H67.3477L66.7317 33H65.7377L66.3537 29.5ZM68.7843 33.07C68.4669 33.07 68.1893 33.007 67.9513 32.881C67.7133 32.7503 67.5639 32.5823 67.5032 32.377L68.1963 31.957C68.2569 32.0737 68.3433 32.167 68.4552 32.237C68.5719 32.3023 68.6956 32.335 68.8263 32.335C69.0036 32.335 69.1413 32.3047 69.2393 32.244C69.3419 32.1833 69.3933 32.0993 69.3933 31.992C69.3933 31.9127 69.3536 31.8403 69.2743 31.775C69.1996 31.705 69.0783 31.635 68.9103 31.565C68.5696 31.4203 68.3176 31.264 68.1543 31.096C67.9956 30.928 67.9163 30.739 67.9163 30.529C67.9163 30.1883 68.0446 29.92 68.3013 29.724C68.5626 29.528 68.9173 29.43 69.3653 29.43C69.6546 29.43 69.9066 29.4813 70.1213 29.584C70.3406 29.6867 70.5016 29.8313 70.6043 30.018L69.9603 30.445C69.8296 30.2583 69.6289 30.165 69.3583 30.165C69.2183 30.165 69.1086 30.1907 69.0293 30.242C68.9546 30.2933 68.9173 30.3657 68.9173 30.459C68.9173 30.5197 68.9523 30.5733 69.0223 30.62C69.0969 30.6667 69.2556 30.7413 69.4983 30.844C69.8109 30.9747 70.0396 31.117 70.1843 31.271C70.3336 31.425 70.4083 31.5977 70.4083 31.789C70.4083 32.041 70.3406 32.265 70.2053 32.461C70.0699 32.6523 69.8786 32.8017 69.6313 32.909C69.3839 33.0163 69.1016 33.07 68.7843 33.07Z" fill="#056734"/>
<defs>
<clipPath id="clip0">
<rect width="63.9832" height="26.2" fill="white" transform="translate(6)"/>
</clipPath>
</defs>
</svg>
