<svg width="83" height="27" viewBox="0 0 83 27" fill="none" xmlns="http://www.w3.org/2000/svg">
<g clip-path="url(#clip0)">
<path d="M36.9 8C36.9 8.53401 36.7417 9.05603 36.445 9.50004C36.1483 9.94405 35.7266 10.2901 35.2332 10.4945C34.7399 10.6988 34.197 10.7523 33.6733 10.6481C33.1495 10.5439 32.6684 10.2868 32.2908 9.90919C31.9132 9.53159 31.6561 9.05049 31.5519 8.52674C31.4477 8.00299 31.5012 7.46011 31.7055 6.96675C31.9099 6.47339 32.2559 6.05171 32.7 5.75503C33.144 5.45835 33.666 5.3 34.2 5.3C34.5549 5.29868 34.9066 5.36761 35.2348 5.50283C35.563 5.63805 35.8612 5.83688 36.1121 6.08786C36.3631 6.33884 36.5619 6.63702 36.6972 6.96519C36.8324 7.29337 36.9013 7.64506 36.9 8V8ZM35.7 8C35.6869 7.80302 35.6351 7.61055 35.5476 7.43359C35.46 7.25662 35.3385 7.09863 35.19 6.96863C35.0414 6.83863 34.8687 6.73916 34.6816 6.67591C34.4946 6.61266 34.297 6.58687 34.1 6.6C33.903 6.61313 33.7106 6.66493 33.5336 6.75245C33.3566 6.83996 33.1986 6.96148 33.0686 7.11005C32.9386 7.25862 32.8392 7.43135 32.7759 7.61836C32.7127 7.80538 32.6869 8.00302 32.7 8.2C32.73 8.57855 32.9005 8.93218 33.1781 9.19128C33.4557 9.45038 33.8203 9.59619 34.2 9.6C34.4057 9.60046 34.6093 9.55861 34.7981 9.47705C34.9869 9.39549 35.157 9.27597 35.2976 9.12591C35.4383 8.97586 35.5466 8.79847 35.6159 8.60478C35.6851 8.41109 35.7137 8.20523 35.7 8V8Z" fill="#D62D20"/>
<path d="M42.7 8C42.7 8.53401 42.5417 9.05603 42.245 9.50004C41.9483 9.94405 41.5266 10.2901 41.0333 10.4945C40.5399 10.6988 39.997 10.7523 39.4733 10.6481C38.9495 10.5439 38.4684 10.2868 38.0908 9.90919C37.7132 9.53159 37.4561 9.05049 37.3519 8.52674C37.2477 8.00299 37.3012 7.46011 37.5055 6.96675C37.7099 6.47339 38.056 6.05171 38.5 5.75503C38.944 5.45835 39.466 5.3 40 5.3C40.3549 5.29868 40.7066 5.36761 41.0348 5.50283C41.363 5.63805 41.6612 5.83688 41.9121 6.08786C42.1631 6.33884 42.362 6.63702 42.4972 6.96519C42.6324 7.29337 42.7013 7.64506 42.7 8V8ZM41.5 8C41.4869 7.80302 41.4351 7.61055 41.3476 7.43359C41.26 7.25662 41.1385 7.09863 40.99 6.96863C40.8414 6.83863 40.6687 6.73916 40.4816 6.67591C40.2946 6.61266 40.097 6.58687 39.9 6.6C39.703 6.61313 39.5106 6.66493 39.3336 6.75245C39.1566 6.83996 38.9986 6.96148 38.8686 7.11005C38.7386 7.25862 38.6392 7.43135 38.5759 7.61836C38.5127 7.80538 38.4869 8.00302 38.5 8.2C38.53 8.57855 38.7005 8.93218 38.9781 9.19128C39.2558 9.45038 39.6203 9.59619 40 9.6C40.4103 9.58435 40.7978 9.4076 41.0786 9.10808C41.3594 8.80856 41.5108 8.41042 41.5 8V8Z" fill="#FFA700"/>
<path d="M48.2 5.5V10.3C48.2 12.3 47 13.1 45.7 13.1C45.1867 13.1 44.6849 12.9481 44.2578 12.6633C43.8307 12.3786 43.4974 11.9738 43.3 11.5L44.3 11.1C44.3984 11.3735 44.5731 11.6131 44.8035 11.7904C45.034 11.9676 45.3104 12.0751 45.6 12.1C46.5 12.1 47 11.6 47 10.5V10.1C46.6307 10.4768 46.1275 10.6925 45.6 10.7C44.8839 10.7 44.1972 10.4155 43.6908 9.90919C43.1845 9.40284 42.9 8.71608 42.9 8C42.9 7.28391 43.1845 6.59716 43.6908 6.09081C44.1972 5.58446 44.8839 5.3 45.6 5.3C45.8628 5.29294 46.1241 5.34292 46.3658 5.4465C46.6075 5.55008 46.8238 5.70479 47 5.9V5.9V5.5H48.2ZM47.2 8C47.2255 7.80066 47.2083 7.59819 47.1498 7.40596C47.0912 7.21373 46.9924 7.03613 46.8601 6.8849C46.7278 6.73366 46.5649 6.61223 46.3821 6.52865C46.1994 6.44506 46.0009 6.40121 45.8 6.4H45.7C45.4887 6.42337 45.2842 6.48888 45.0986 6.59266C44.9131 6.69644 44.7502 6.83638 44.6197 7.0042C44.4891 7.17202 44.3936 7.36432 44.3387 7.56971C44.2838 7.77511 44.2706 7.98943 44.3 8.2C44.3235 8.56358 44.4786 8.90616 44.7362 9.16379C44.9938 9.42142 45.3364 9.57647 45.7 9.6C45.9083 9.61001 46.1163 9.57464 46.3097 9.49635C46.503 9.41805 46.677 9.29869 46.8196 9.14653C46.9623 8.99437 47.0702 8.81304 47.1358 8.61508C47.2015 8.41712 47.2234 8.20725 47.2 8V8Z" fill="#0057E7"/>
<path d="M50.1 2.7V10.5H49V2.7H50.1Z" fill="#008744"/>
<path d="M54.5 8.9L55.4 9.5C55.0875 9.9752 54.6314 10.3382 54.0982 10.5361C53.565 10.734 52.9825 10.7565 52.4356 10.6002C51.8888 10.444 51.4061 10.1172 51.0579 9.66745C50.7097 9.21772 50.5143 8.66857 50.5 8.1V8C50.4617 7.32406 50.6927 6.66049 51.1425 6.15448C51.5923 5.64847 52.2242 5.34123 52.9 5.3H53C53.5127 5.30829 54.0101 5.4766 54.4224 5.7814C54.8348 6.08621 55.1416 6.51226 55.3 7L55.4 7.3L51.8 8.8C51.9095 9.04981 52.0927 9.26024 52.3249 9.4032C52.5572 9.54615 52.8276 9.61481 53.1 9.6C53.3717 9.6 53.6396 9.53675 53.8826 9.41525C54.1256 9.29375 54.337 9.11734 54.5 8.9V8.9ZM51.7 7.9L54.1 6.9C54.0063 6.71631 53.8629 6.56266 53.686 6.45657C53.5092 6.35048 53.3062 6.29623 53.1 6.3C52.7129 6.35305 52.3581 6.5442 52.1008 6.83821C51.8435 7.13223 51.7012 7.50932 51.7 7.9V7.9Z" fill="#D62D20"/>
<path d="M27.2 7.3V6.2H31C31 6.4 31.1 6.7 31.1 6.9C31.1353 7.86685 30.7874 8.80853 30.1319 9.52016C29.4764 10.2318 28.5665 10.6558 27.6 10.7H27.3C26.204 10.6978 25.152 10.2682 24.3677 9.50258C23.5834 8.73696 23.1286 7.69566 23.1 6.6C23.1022 5.50397 23.5318 4.45202 24.2974 3.66772C25.063 2.88343 26.1043 2.42864 27.2 2.4V2.4C28.2688 2.39882 29.3008 2.79027 30.1 3.5L29.3 4.3C28.7301 3.77133 27.9772 3.48452 27.2 3.5C26.4044 3.5 25.6413 3.81607 25.0787 4.37868C24.5161 4.94129 24.2 5.70435 24.2 6.5C24.2 7.29565 24.5161 8.05871 25.0787 8.62132C25.6413 9.18393 26.4044 9.5 27.2 9.5C27.9732 9.49329 28.7183 9.20943 29.3 8.7C29.6768 8.33074 29.8925 7.82754 29.9 7.3H27.2Z" fill="#0057E7"/>
<path d="M25.9 20.7C25.1501 20.7642 24.4028 20.5506 23.8 20.1C23.5699 19.9036 23.3874 19.6576 23.2661 19.3804C23.1449 19.1033 23.0881 18.8023 23.1 18.5H24C24.0045 18.718 24.0614 18.9318 24.1658 19.1232C24.2702 19.3147 24.4191 19.4782 24.6 19.6C25.0305 19.8372 25.5091 19.9739 26 20C26.418 19.9957 26.8291 19.8929 27.2 19.7C27.3427 19.6181 27.4631 19.5022 27.5503 19.3627C27.6375 19.2231 27.6889 19.0642 27.7 18.9C27.7 18.7332 27.6531 18.5697 27.5647 18.4283C27.4763 18.2869 27.3499 18.1731 27.2 18.1C26.6819 17.8881 26.1466 17.7208 25.6 17.6C24.9827 17.5164 24.3972 17.2753 23.9 16.9C23.7402 16.7439 23.6136 16.5572 23.5276 16.351C23.4417 16.1448 23.3983 15.9234 23.4 15.7C23.4 15.4283 23.4633 15.1604 23.5848 14.9174C23.7063 14.6744 23.8827 14.463 24.1 14.3C24.3319 14.1012 24.6033 13.9538 24.8964 13.8676C25.1894 13.7815 25.4974 13.7584 25.8 13.8C26.4346 13.798 27.0574 13.971 27.6 14.3C27.8282 14.4758 28.0108 14.7037 28.1327 14.9648C28.2545 15.2258 28.3119 15.5122 28.3 15.8H27.4C27.3 15 26.8 14.6 25.7 14.6C25.282 14.6043 24.8709 14.7071 24.5 14.9C24.3736 14.9665 24.2688 15.0677 24.1979 15.1917C24.1271 15.3157 24.0931 15.4573 24.1 15.6C24.0846 15.7185 24.1049 15.8389 24.1583 15.9458C24.2118 16.0527 24.2959 16.1412 24.4 16.2C24.7837 16.3779 25.1863 16.5121 25.6 16.6C26.0818 16.6733 26.5522 16.8077 27 17C27.3544 17.103 27.6686 17.3125 27.9 17.6C28.037 17.7472 28.143 17.9204 28.2117 18.1094C28.2804 18.2983 28.3105 18.4992 28.3 18.7C28.3119 18.9878 28.2545 19.2742 28.1327 19.5352C28.0108 19.7963 27.8282 20.0242 27.6 20.2C27.1006 20.5424 26.5053 20.7175 25.9 20.7V20.7ZM32.6 19.3V18.2H32C30.7 18.2 30.1 18.6 30.1 19.2C30.1073 19.315 30.1376 19.4274 30.1891 19.5305C30.2406 19.6335 30.3123 19.7252 30.4 19.8C30.6462 19.9313 30.921 20 31.2 20C31.479 20 31.7538 19.9313 32 19.8C32.2414 19.6905 32.4487 19.5177 32.6 19.3V19.3ZM32.6 20.1C32.118 20.4874 31.5184 20.6991 30.9 20.7C30.4641 20.7209 30.0361 20.5783 29.7 20.3C29.5436 20.1847 29.4167 20.0339 29.3298 19.8601C29.2429 19.6863 29.1984 19.4943 29.2 19.3C29.2 18.2 30.2 17.6 32.1 17.6H32.5C32.5162 17.3294 32.4823 17.0582 32.4 16.8C32.4 16.6 32.2 16.5 32.1 16.4C31.8514 16.2749 31.5782 16.2066 31.3 16.2C30.5 16.2 30.1 16.5 30.1 17H29.2C29.3 16 30 15.5 31.3 15.5C31.8276 15.4904 32.3473 15.629 32.8 15.9C33.0023 16.0882 33.154 16.3241 33.2414 16.5862C33.3287 16.8483 33.3489 17.1281 33.3 17.4V20.6H32.4L32.6 20.1ZM35.8 16.3V20.5H34.9V16.3H34.2V15.6H34.9V15.2C34.9 14.2 35.3 13.7 36.3 13.7C36.5051 13.6842 36.7111 13.7186 36.9 13.8V14.6H36.4C36.2145 14.6034 36.0367 14.6745 35.9 14.8C35.8364 14.8847 35.7942 14.9834 35.7768 15.0878C35.7594 15.1922 35.7673 15.2993 35.8 15.4V15.8H36.7V16.5L35.8 16.3ZM39.5 20.7C39.169 20.7097 38.8399 20.6464 38.536 20.5148C38.2321 20.3832 37.9608 20.1864 37.7414 19.9384C37.522 19.6903 37.3597 19.3971 37.2662 19.0794C37.1726 18.7617 37.15 18.4274 37.2 18.1C37.184 17.4177 37.395 16.7494 37.8 16.2C37.9964 15.9699 38.2424 15.7874 38.5196 15.6661C38.7967 15.5449 39.0977 15.4881 39.4 15.5C39.7159 15.4959 40.0295 15.5557 40.3216 15.6761C40.6138 15.7964 40.8786 15.9746 41.1 16.2C41.3219 16.4605 41.4894 16.7629 41.5924 17.0892C41.6955 17.4156 41.7321 17.7593 41.7 18.1V18.3H38C38.0147 18.7774 38.191 19.2358 38.5 19.6C38.6276 19.7353 38.7832 19.8412 38.9559 19.9103C39.1286 19.9794 39.3143 20.01 39.5 20C39.7782 19.9934 40.0514 19.925 40.3 19.8C40.42 19.7262 40.5196 19.6234 40.5895 19.5011C40.6594 19.3788 40.6974 19.2409 40.7 19.1H41.6C41.5871 19.3413 41.5169 19.576 41.3951 19.7846C41.2734 19.9933 41.1037 20.17 40.9 20.3C40.4695 20.5372 39.9909 20.6739 39.5 20.7V20.7ZM40.7 17.7C40.7016 17.5057 40.6571 17.3137 40.5702 17.1399C40.4833 16.9661 40.3564 16.8153 40.2 16.7C40.082 16.5815 39.9417 16.4874 39.7873 16.4233C39.6329 16.3591 39.4673 16.326 39.3 16.326C39.1328 16.326 38.9672 16.3591 38.8127 16.4233C38.6583 16.4874 38.518 16.5815 38.4 16.7C38.1553 16.9883 37.9838 17.3313 37.9 17.7H40.7ZM50.3 18.7C50.3098 18.978 50.2615 19.255 50.1582 19.5133C50.0549 19.7716 49.8988 20.0054 49.7 20.2C49.1407 20.5752 48.4715 20.7513 47.8 20.7H45.3V13.9H47.7C48.3075 13.8642 48.9086 14.0409 49.4 14.4C49.5935 14.5557 49.7484 14.7541 49.8525 14.9796C49.9566 15.2052 50.007 15.4517 50 15.7C49.9851 16.0172 49.8842 16.3244 49.708 16.5887C49.5319 16.8529 49.2871 17.0642 49 17.2C49.7 17.1 50.3 17.8 50.3 18.7V18.7ZM46.1 16.7H47.6C47.9749 16.6912 48.346 16.6237 48.7 16.5C48.929 16.293 49.0718 16.0074 49.1 15.7C49.1075 15.4045 48.9999 15.1177 48.8 14.9C48.4291 14.7071 48.018 14.6043 47.6 14.6H46.2L46.1 16.7ZM46.1 19.8H47.7C48.8 19.8 49.3 19.4 49.3 18.6C49.3086 18.4291 49.2769 18.2586 49.2074 18.1022C49.138 17.9459 49.0326 17.8081 48.9 17.7C48.4938 17.5062 48.05 17.4038 47.6 17.4H46.1V19.8V19.8ZM54 16.5C53.8 16.5 53.6 16.4 53.5 16.5C53.2695 16.5019 53.0441 16.5685 52.8496 16.6923C52.6551 16.816 52.4993 16.992 52.4 17.2V20.7H51.5V15.8H52.4V16.5C52.5199 16.2582 52.7054 16.055 52.9353 15.9136C53.1651 15.7721 53.4301 15.6981 53.7 15.7H54.1L54 16.5V16.5ZM56.6 15.6C56.9159 15.5959 57.2295 15.6557 57.5216 15.7761C57.8138 15.8964 58.0786 16.0746 58.3 16.3C58.5219 16.5605 58.6894 16.8629 58.7924 17.1892C58.8955 17.5156 58.9321 17.8593 58.9 18.2C58.916 18.8823 58.705 19.5506 58.3 20.1C58.0902 20.3404 57.8274 20.5287 57.5324 20.6502C57.2374 20.7716 56.9182 20.8229 56.6 20.8C56.2841 20.8041 55.9706 20.7443 55.6784 20.6239C55.3862 20.5036 55.1214 20.3254 54.9 20.1C54.6781 19.8395 54.5106 19.5371 54.4076 19.2108C54.3045 18.8844 54.2679 18.5407 54.3 18.2C54.284 17.5177 54.495 16.8494 54.9 16.3C55.1098 16.0596 55.3726 15.8713 55.6676 15.7498C55.9626 15.6284 56.2818 15.5771 56.6 15.6ZM56.6 20C56.7943 20.0016 56.9863 19.9571 57.1601 19.8702C57.3339 19.7833 57.4847 19.6564 57.6 19.5C57.8458 19.0743 57.9751 18.5915 57.9751 18.1C57.9751 17.6085 57.8458 17.1257 57.6 16.7C57.4836 16.5448 57.3326 16.4187 57.159 16.332C56.9855 16.2452 56.7941 16.2 56.6 16.2C56.4059 16.2 56.2146 16.2452 56.041 16.332C55.8674 16.4187 55.7164 16.5448 55.6 16.7C55.3186 17.111 55.1782 17.6023 55.2 18.1C55.1782 18.5977 55.3186 19.089 55.6 19.5C55.7153 19.6564 55.8661 19.7833 56.0399 19.8702C56.2137 19.9571 56.4057 20.0016 56.6 20V20ZM65.9 15.7L64.5 20.6H63.7L62.6 17L61.5 20.6H60.7L59.2 15.7H60.2L61.1 19.4L62.2 15.7H63L64.1 19.4L65 15.7H65.9ZM68.4 20.7C67.1 20.7 66.4 20.2 66.3 19.1H67.2C67.2 19.7 67.6 20 68.4 20C68.6782 19.9934 68.9514 19.925 69.2 19.8C69.2956 19.7325 69.373 19.6423 69.4253 19.5377C69.4777 19.433 69.5033 19.317 69.5 19.2C69.5019 19.0969 69.4748 18.9954 69.4217 18.907C69.3687 18.8186 69.2918 18.7468 69.2 18.7C68.8507 18.5229 68.4814 18.3886 68.1 18.3C67.651 18.1773 67.2155 18.0098 66.8 17.8C66.6674 17.6919 66.562 17.5541 66.4926 17.3978C66.4231 17.2414 66.3914 17.0709 66.4 16.9C66.3984 16.7057 66.4429 16.5137 66.5298 16.3399C66.6167 16.1661 66.7436 16.0153 66.9 15.9C67.2802 15.6327 67.7353 15.4927 68.2 15.5C69.5 15.5 70.1 16 70.2 16.9H69.3C69.3 16.4 68.9 16.2 68.3 16.2C68.1758 16.1787 68.0484 16.1856 67.9272 16.2202C67.806 16.2548 67.6942 16.3163 67.6 16.4C67.5082 16.4468 67.4313 16.5186 67.3783 16.607C67.3252 16.6954 67.2981 16.7969 67.3 16.9C67.3015 16.9774 67.3202 17.0534 67.3548 17.1226C67.3894 17.1918 67.439 17.2524 67.5 17.3C67.8353 17.4915 68.2138 17.5948 68.6 17.6C69.0545 17.7052 69.4921 17.8735 69.9 18.1C70.0552 18.2111 70.1753 18.3644 70.2461 18.5415C70.317 18.7187 70.3357 18.9125 70.3 19.1C70.2825 19.5177 70.1032 19.9122 69.8 20.2C69.6235 20.389 69.4043 20.5331 69.1607 20.6201C68.9172 20.7071 68.6563 20.7345 68.4 20.7ZM72.2 20.6H71.3V15.7H72.2V20.6ZM72.2 14.8H71.3V13.9H72.2V14.8ZM74.4 16.3C74.5907 16.0891 74.8216 15.9185 75.0792 15.7983C75.3368 15.6781 75.6159 15.6107 75.9 15.6C77 15.6 77.5 16.2 77.5 17.4V20.6H76.6V17.4C76.6302 17.0864 76.5601 16.7713 76.4 16.5C76.3119 16.4024 76.2037 16.325 76.0829 16.2732C75.9621 16.2215 75.8314 16.1965 75.7 16.2C75.4385 16.2319 75.187 16.3199 74.9626 16.458C74.7382 16.5961 74.5463 16.7809 74.4 17V20.5H73.5V15.6H74.4V16.3ZM82.7 20.2C82.7 21.8 82 22.6 80.6 22.6C80.0724 22.6096 79.5527 22.471 79.1 22.2C78.7968 21.9122 78.6175 21.5177 78.6 21.1H79.5C79.5 21.6 79.9 21.9 80.6 21.9C80.9258 21.9078 81.2441 21.8017 81.5 21.6C81.6456 21.4204 81.7483 21.2099 81.8003 20.9847C81.8522 20.7594 81.8522 20.5252 81.8 20.3V20C81.637 20.2173 81.4256 20.3937 81.1826 20.5152C80.9396 20.6367 80.6717 20.7 80.4 20.7C80.1122 20.7118 79.8258 20.6545 79.5648 20.5327C79.3037 20.4108 79.0758 20.2282 78.9 20C78.6996 19.7492 78.5519 19.4604 78.466 19.1511C78.3801 18.8418 78.3576 18.5182 78.4 18.2C78.384 17.5177 78.595 16.8494 79 16.3C79.1907 16.0891 79.4216 15.9185 79.6792 15.7983C79.9368 15.6781 80.2159 15.6107 80.5 15.6C80.981 15.5961 81.4456 15.7748 81.8 16.1V15.7H82.7V20.2ZM81.8 19.2V16.9C81.6494 16.6936 81.4544 16.5236 81.2295 16.4025C81.0045 16.2813 80.7552 16.2121 80.5 16.2C80.3197 16.199 80.1421 16.2445 79.9845 16.3321C79.8269 16.4197 79.6945 16.5464 79.6 16.7C79.4025 17.1403 79.3003 17.6174 79.3003 18.1C79.3003 18.5826 79.4025 19.0597 79.6 19.5C79.6945 19.6536 79.8269 19.7803 79.9845 19.8679C80.1421 19.9555 80.3197 20.001 80.5 20C81.0143 19.8954 81.4749 19.6119 81.8 19.2V19.2Z" fill="#388E3C"/>
<path d="M0 3.4V5.8C0 8 0 9.9 0.1 11.8C0.4 15.4 1.2 18.3 3.8 20.9C5.41302 22.31 7.11667 23.6128 8.9 24.8V3.3C5.2 3.4 1.4 2.9 0 3.4Z" fill="#66BB6A"/>
<path d="M18 3.4H9V24.9C10.7833 23.7128 12.487 22.41 14.1 21C18 17.1 18 13 18 6.8V3.4Z" fill="#388E3C"/>
<path d="M18.8 3.4H-0.699997V5H18.8V3.4Z" fill="url(#paint0_linear)"/>
<path d="M10.9 19.4C10.6 19.8 10.2 20.1 9.9 20.5L9 21.4C8.9 21.3 8.8 21.3 8.8 21.2L7.2 19.6C7.69461 19.1366 8.33679 18.8625 9.01356 18.826C9.69033 18.7894 10.3583 18.9926 10.9 19.4V19.4Z" fill="#FAFAFA"/>
<path d="M8.8 21.2L9 21.4L9.9 20.5C9.51154 20.6972 9.14315 20.9316 8.8 21.2V21.2ZM9.1 16.8C7.97065 16.7977 6.87531 17.1864 6 17.9C6.07493 18.106 6.21547 18.2817 6.4 18.4L6.6 18.7C7.32946 18.0957 8.25306 17.776 9.2 17.8C10.1139 17.7929 11.0003 18.1121 11.7 18.7L11.8 18.5C11.9 18.3 12.1 18.1 12.2 17.9C11.3085 17.2157 10.2235 16.8307 9.1 16.8V16.8Z" fill="#FAFAFA"/>
<path d="M9.1 14.6C7.62963 14.5847 6.19293 15.0403 5 15.9C5.08965 16.2492 5.2241 16.5853 5.4 16.9C6.47525 16.1185 7.77075 15.6983 9.1 15.7V15.7C10.3523 15.6962 11.575 16.0805 12.6 16.8C12.7 16.5 12.9 16.1 13 15.8C11.851 15.0154 10.4913 14.597 9.1 14.6V14.6Z" fill="#FAFAFA"/>
<path d="M18 3.4V1.6C17.9199 1.18888 17.7127 0.813294 17.4077 0.526225C17.1027 0.239155 16.7152 0.0550919 16.3 0L1.6 0C1.19762 0.061405 0.825384 0.249749 0.537567 0.537567C0.249749 0.825384 0.061405 1.19762 0 1.6L0 3.4H18Z" fill="#E0E0E0"/>
<path d="M8.89999 13C10.5568 13 11.9 11.6569 11.9 10C11.9 8.34315 10.5568 7 8.89999 7C7.24314 7 5.89999 8.34315 5.89999 10C5.89999 11.6569 7.24314 13 8.89999 13Z" fill="#FAFAFA"/>
</g>
<defs>
<linearGradient id="paint0_linear" x1="8.6612" y1="3.438" x2="8.6612" y2="4.79" gradientUnits="userSpaceOnUse">
<stop stop-color="#263238" stop-opacity="0.35"/>
<stop offset="0.42" stop-color="#263238" stop-opacity="0.15"/>
<stop offset="0.89" stop-color="#263238" stop-opacity="0.02"/>
<stop offset="1" stop-color="#263238" stop-opacity="0"/>
</linearGradient>
<clipPath id="clip0">
<rect width="82.7" height="26.1" fill="white"/>
</clipPath>
</defs>
</svg>
