<svg width="55" height="27" viewBox="0 0 55 27" fill="none" xmlns="http://www.w3.org/2000/svg">
<g clip-path="url(#clip0)">
<path d="M24.1 4.51C25.7 4.51 26.5 5.41 26.5 7.11V7.41H25V7C25 6.3 24.7 6 24.2 6C23.7 6 23.4 6.3 23.4 7C23.4 9.1 26.5 9.5 26.5 12.4C26.5 14 25.7 15 24.1 15C22.5 15 21.7 14.1 21.7 12.4V11.8H23.2V12.5C23.2 13.2 23.5 13.5 24 13.5C24.5 13.5 24.8 13.2 24.8 12.5C24.8 10.4 21.7 10 21.7 7.1C21.8 5.41 22.6 4.51 24.1 4.51Z" fill="#9AC201"/>
<path d="M29 8.91H31.2V10.41H29V13.41H31.8V14.91H27.4V4.71H31.8V6.21H29V8.91Z" fill="#9AC201"/>
<path d="M35.2 9.11H37.4V12.31C37.4 13.91 36.6 14.91 35 14.91C33.4 14.91 32.6 14.01 32.6 12.31V7C32.6 5.4 33.4 4.4 35 4.4C36.6 4.4 37.4 5.3 37.4 7V8H35.9V6.91C35.9 6.21 35.6 5.91 35.1 5.91C34.6 5.91 34.3 6.21 34.3 6.91V12.41C34.3 13.11 34.6 13.41 35.1 13.41C35.6 13.41 35.9 13.11 35.9 12.41V10.51H35.2V9.11Z" fill="#9AC201"/>
<path d="M40 4.61V12.51C40 13.21 40.3 13.51 40.8 13.51C41.3 13.51 41.6 13.21 41.6 12.51V4.61H43.1V12.41C43.1 14.01 42.3 15.01 40.7 15.01C39.1 15.01 38.3 14.11 38.3 12.41V4.61H40Z" fill="#9AC201"/>
<path d="M47.6 14.81C47.4637 14.3908 47.4294 13.9451 47.5 13.51V11.91C47.5 10.91 47.2 10.61 46.5 10.61H45.9V14.71H44.3V4.51H46.7C48.4 4.51 49.1 5.31 49.1 6.91V7.71C49.1509 8.13025 49.073 8.55606 48.8766 8.93105C48.6801 9.30604 48.3745 9.61255 48 9.81C48.8 10.11 49.1 10.91 49.1 12.01V13.61C49.0685 14.0203 49.1371 14.4321 49.3 14.81H47.6ZM45.8 6.11V9.21H46.4C47 9.21 47.4 8.91 47.4 8.11V7.11C47.4 6.41 47.1 6.11 46.6 6.11H45.8Z" fill="#9AC201"/>
<path d="M50 7C49.9803 6.67826 50.0242 6.35579 50.1291 6.05101C50.234 5.74622 50.3979 5.46509 50.6115 5.22365C50.8251 4.98222 51.0841 4.78522 51.3738 4.6439C51.6635 4.50257 51.9783 4.4197 52.3 4.4C52.6217 4.3803 52.9442 4.42417 53.249 4.52909C53.5538 4.63402 53.8349 4.79795 54.0763 5.01152C54.3178 5.2251 54.5148 5.48413 54.6561 5.77384C54.7974 6.06355 54.8803 6.37826 54.9 6.7V12.3C54.9398 12.9498 54.7198 13.5888 54.2885 14.0763C53.8571 14.5639 53.2498 14.8602 52.6 14.9C51.9502 14.9398 51.3112 14.7198 50.8236 14.2885C50.3361 13.8571 50.0398 13.2498 50 12.6V7ZM51.6 12.4C51.6 13.1 51.9 13.4 52.4 13.4C52.9 13.4 53.2 13.1 53.2 12.4V6.91C53.2 6.21 52.9 5.91 52.4 5.91C51.9 5.91 51.6 6.21 51.6 6.91V12.4Z" fill="#9AC201"/>
<path d="M23.9 19.91V20.51C23.9172 20.6633 23.9013 20.8184 23.8535 20.9651C23.8057 21.1117 23.7271 21.2464 23.6229 21.3601C23.5186 21.4738 23.3913 21.5639 23.2493 21.6242C23.1074 21.6846 22.9542 21.7138 22.8 21.71C22.1 21.71 21.7 21.31 21.7 20.51V18.21C21.6813 18.056 21.696 17.8997 21.7431 17.7518C21.7902 17.604 21.8686 17.468 21.973 17.3532C22.0774 17.2383 22.2053 17.1473 22.348 17.0864C22.4907 17.0255 22.6449 16.996 22.8 17C23.5 17 23.9 17.4 23.9 18.2V18.6H23.2V18.2C23.2 17.9 23.1 17.7 22.8 17.7C22.5 17.7 22.4 17.8 22.4 18.2V20.7C22.4 21 22.5 21.1 22.8 21.1C23.1 21.1 23.2 21 23.2 20.7V20L23.9 19.91Z" fill="#9AC201"/>
<path d="M25 19H26V19.7H25V21.1H26.3V21.7H24.3V17.1H26.3V17.8H25V19Z" fill="#9AC201"/>
<path d="M28.2 21.61C28.1186 21.4211 28.0842 21.2151 28.1 21.01V20.31C28.1 19.91 28 19.71 27.6 19.71H27.3V21.61H26.6V17H27.7C27.8483 16.9843 27.9983 17.0019 28.1389 17.0516C28.2795 17.1013 28.4072 17.1818 28.5127 17.2873C28.6182 17.3928 28.6987 17.5205 28.7484 17.6611C28.7981 17.8017 28.8158 17.9517 28.8 18.1V18.5C28.8274 18.5919 28.8361 18.6884 28.8257 18.7837C28.8153 18.8791 28.7859 18.9714 28.7394 19.0552C28.6928 19.139 28.6299 19.2127 28.5545 19.2719C28.479 19.3311 28.3925 19.3747 28.3 19.4C28.7 19.5 28.8 19.9 28.8 20.4V21.1C28.7739 21.2732 28.8093 21.4501 28.9 21.6L28.2 21.61ZM27.4 17.71V19.11H27.7C28 19.11 28.1 19.01 28.1 18.61V18.21C28.1 17.91 28 17.71 27.7 17.71H27.4Z" fill="#9AC201"/>
<path d="M29.1 17H31.3V17.7H30.5V21.6H29.8V17.7H29L29.1 17Z" fill="#9AC201"/>
<path d="M31.7 17H32.4V21.6H31.7V17Z" fill="#9AC201"/>
<path d="M33.7 19.11H34.6V19.71H33.7V21.61H33V17H34.9V17.7H33.7V19.11Z" fill="#9AC201"/>
<path d="M35.2 17H35.9V21.6H35.2V17Z" fill="#9AC201"/>
<path d="M38.6 19.91V20.51C38.6172 20.6633 38.6013 20.8184 38.5535 20.9651C38.5057 21.1117 38.4271 21.2464 38.3228 21.3601C38.2186 21.4738 38.0913 21.5639 37.9493 21.6242C37.8074 21.6846 37.6542 21.7138 37.5 21.71C36.8 21.71 36.4 21.31 36.4 20.51V18.21C36.3813 18.056 36.396 17.8997 36.4431 17.7518C36.4902 17.604 36.5686 17.468 36.673 17.3532C36.7774 17.2383 36.9053 17.1473 37.048 17.0864C37.1907 17.0255 37.3449 16.996 37.5 17C38.2 17 38.6 17.4 38.6 18.2V18.6H37.9V18.2C37.9 17.9 37.8 17.7 37.5 17.7C37.2 17.7 37.1 17.8 37.1 18.2V20.7C37.1 21 37.2 21.1 37.5 21.1C37.8 21.1 37.9 21 37.9 20.7V20L38.6 19.91Z" fill="#9AC201"/>
<path d="M41.3 21.61H40.6L40.5 20.81H39.6L39.5 21.61H38.8L39.5 17.01H40.6L41.3 21.61ZM39.7 20.21H40.4L40 17.91L39.7 20.21Z" fill="#9AC201"/>
<path d="M41.7 17H42.8C42.9483 16.9843 43.0983 17.0019 43.2389 17.0516C43.3795 17.1013 43.5072 17.1818 43.6127 17.2873C43.7182 17.3928 43.7987 17.5205 43.8484 17.6611C43.8981 17.8017 43.9157 17.9517 43.9 18.1V20.4C43.9157 20.5483 43.8981 20.6983 43.8484 20.8389C43.7987 20.9795 43.7182 21.1072 43.6127 21.2127C43.5072 21.3182 43.3795 21.3987 43.2389 21.4484C43.0983 21.4981 42.9483 21.5157 42.8 21.5H41.7V17ZM42.4 17.7V21H42.8C43 21 43.2 20.9 43.2 20.5V18.2C43.2 17.9 43.1 17.7 42.8 17.7H42.4Z" fill="#9AC201"/>
<path d="M44.3 18.21C44.3 17.9183 44.4159 17.6385 44.6222 17.4322C44.8285 17.2259 45.1083 17.11 45.4 17.11C45.6917 17.11 45.9715 17.2259 46.1778 17.4322C46.3841 17.6385 46.5 17.9183 46.5 18.21V20.61C46.5 20.9017 46.3841 21.1815 46.1778 21.3878C45.9715 21.5941 45.6917 21.71 45.4 21.71C45.1083 21.71 44.8285 21.5941 44.6222 21.3878C44.4159 21.1815 44.3 20.9017 44.3 20.61V18.21ZM45 20.61C45 20.91 45.1 21.11 45.4 21.11C45.7 21.11 45.8 21.01 45.8 20.61V18.11C45.8 17.81 45.7 17.61 45.4 17.61C45.1 17.61 45 17.71 45 18.11V20.61Z" fill="#9AC201"/>
<path d="M49 17C49.7 17 50.1 17.4 50.1 18.2V18.3H49.4V18.1C49.4 17.8 49.3 17.6 49 17.6C48.7 17.6 48.6 17.7 48.6 18.1C48.6 19.1 50 19.2 50 20.5C50.0172 20.6533 50.0013 20.8084 49.9535 20.9551C49.9057 21.1017 49.8271 21.2364 49.7229 21.3501C49.6186 21.4638 49.4913 21.5539 49.3493 21.6142C49.2074 21.6746 49.0542 21.7038 48.9 21.7C48.2 21.7 47.8 21.3 47.8 20.5V20.2H48.5V20.5C48.5 20.8 48.6 20.9 48.9 20.9C49.2 20.9 49.3 20.8 49.3 20.5C49.3 19.5 47.9 19.4 47.9 18.1C47.8843 17.9517 47.9019 17.8017 47.9516 17.6611C48.0013 17.5205 48.0818 17.3928 48.1873 17.2873C48.2928 17.1818 48.4205 17.1013 48.5611 17.0516C48.7017 17.0019 48.8517 16.9843 49 17Z" fill="#9AC201"/>
<path d="M51.4 17C52.1 17 52.5 17.4 52.5 18.2V18.3H51.8V18.1C51.8 17.8 51.7 17.6 51.4 17.6C51.1 17.6 51 17.7 51 18.1C51 19.1 52.4 19.2 52.4 20.5C52.4172 20.6533 52.4013 20.8084 52.3535 20.9551C52.3057 21.1017 52.2271 21.2364 52.1228 21.3501C52.0186 21.4638 51.8913 21.5539 51.7493 21.6142C51.6074 21.6746 51.4542 21.7038 51.3 21.7C50.6 21.7 50.2 21.3 50.2 20.5V20.2H50.9V20.5C50.9 20.8 51 20.9 51.3 20.9C51.6 20.9 51.7 20.8 51.7 20.5C51.7 19.5 50.3 19.4 50.3 18.1C50.4 17.41 50.7 17 51.4 17Z" fill="#9AC201"/>
<path d="M52.9 17H53.6V21H54.8V21.6H52.9V17Z" fill="#9AC201"/>
<path d="M8.3 10.11V26.21C8.3 26.21 0 25.81 0 18.21V10.21H8.3V10.11Z" fill="#9AC201"/>
<path d="M8.3 10.11V26.21C8.3 26.21 16.6 25.81 16.6 18.21V10.21H8.3V10.11Z" fill="#B1CE00"/>
<path d="M8.3 1.08965e-07C7.40451 -0.0464283 6.51443 0.164277 5.7348 0.60725C4.95517 1.05022 4.31852 1.70697 3.9 2.5C3.3114 3.5728 3.00192 4.77634 3 6V10.1H5.3V5.1C5.31144 4.66446 5.42621 4.23786 5.63484 3.85537C5.84347 3.47287 6.14 3.14542 6.5 2.9C7.03783 2.55735 7.66229 2.37533 8.3 2.37533C8.93771 2.37533 9.56217 2.55735 10.1 2.9C10.4833 3.12056 10.7982 3.44272 11.0099 3.83094C11.2217 4.21916 11.3221 4.65834 11.3 5.1V10.1H13.6V6C13.5981 4.77634 13.2886 3.5728 12.7 2.5C12.2722 1.71483 11.6336 1.06476 10.8562 0.623043C10.0788 0.18133 9.19347 -0.0344578 8.3 1.08965e-07V1.08965e-07Z" fill="#E6F3E2"/>
<path d="M5.9 15.71L4.5 17.11L7.2 20.21L12 15.51L10.4 13.81L7.4 17.21L5.9 15.71Z" fill="white"/>
</g>
<defs>
<clipPath id="clip0">
<rect width="54.91" height="26.21" fill="white"/>
</clipPath>
</defs>
</svg>
